<svg xmlns="http://www.w3.org/2000/svg" xmlns:xlink="http://www.w3.org/1999/xlink" width="603" zoomAndPan="magnify" viewBox="0 0 452.25 182.249993" height="243" preserveAspectRatio="xMidYMid meet" version="1.2"><defs><clipPath id="b17c7bdd6f"><path d="M 0.554688 0 L 450.949219 0 L 450.949219 181.503906 L 0.554688 181.503906 Z M 0.554688 0 "/></clipPath><clipPath id="f7a4534a64"><path d="M 139.820312 68.328125 L 192.105469 68.328125 L 192.105469 120.613281 L 139.820312 120.613281 Z M 139.820312 68.328125 "/></clipPath><clipPath id="993a2595b3"><path d="M 93 118 L 103 118 L 103 119.308594 L 93 119.308594 Z M 93 118 "/></clipPath><clipPath id="f8571bade0"><path d="M 111 111 L 120.429688 111 L 120.429688 113 L 111 113 Z M 111 111 "/></clipPath><clipPath id="a1da68ba6d"><path d="M 115 107 L 120.429688 107 L 120.429688 112 L 115 112 Z M 115 107 "/></clipPath><clipPath id="02e747092e"><path d="M 82.578125 109 L 88 109 L 88 114 L 82.578125 114 Z M 82.578125 109 "/></clipPath><clipPath id="c5139cfd6a"><path d="M 336.351562 92 L 343 92 L 343 100 L 336.351562 100 Z M 336.351562 92 "/></clipPath><clipPath id="7682415908"><path d="M 336.351562 81.308594 L 343 81.308594 L 343 89 L 336.351562 89 Z M 336.351562 81.308594 "/></clipPath><clipPath id="f123c4adc0"><path d="M 336.351562 103 L 343 103 L 343 111 L 336.351562 111 Z M 336.351562 103 "/></clipPath><clipPath id="69f70eab3f"><path d="M 347 84 L 348.078125 84 L 348.078125 114 L 347 114 Z M 347 84 "/></clipPath></defs><g id="c9753ef86b"><g clip-rule="nonzero" clip-path="url(#b17c7bdd6f)"><path style=" stroke:none;fill-rule:nonzero;fill:#ffffff;fill-opacity:1;" d="M 0.554688 0 L 450.949219 0 L 450.949219 181.503906 L 0.554688 181.503906 Z M 0.554688 0 "/></g><g style="fill:#253d4e;fill-opacity:1;"><g transform="translate(40.609835, 118.546193)"><path style="stroke:none" d="M 52.828125 -43.890625 C 51.128906 -46.222656 48.9375 -48.015625 46.25 -49.265625 C 43.570312 -50.523438 40.742188 -51.15625 37.765625 -51.15625 C 32.679688 -51.15625 28.472656 -49.429688 25.140625 -45.984375 C 21.816406 -42.546875 20.15625 -38.171875 20.15625 -32.859375 C 20.15625 -27.597656 21.800781 -23.285156 25.09375 -19.921875 C 28.394531 -16.566406 32.703125 -14.890625 38.015625 -14.890625 C 40.828125 -14.890625 43.53125 -15.503906 46.125 -16.734375 C 48.726562 -17.960938 50.960938 -19.6875 52.828125 -21.90625 L 52.828125 -1.3125 C 49.785156 -0.375 47.066406 0.367188 44.671875 0.921875 C 42.285156 1.472656 39.953125 1.75 37.671875 1.75 C 28.441406 1.75 20.234375 -1.445312 13.046875 -7.84375 C 5.867188 -14.238281 2.28125 -22.601562 2.28125 -32.9375 C 2.28125 -39.300781 3.851562 -45.171875 7 -50.546875 C 10.15625 -55.921875 14.445312 -60.140625 19.875 -63.203125 C 25.3125 -66.273438 31.066406 -67.8125 37.140625 -67.8125 C 42.046875 -67.8125 47.273438 -66.703125 52.828125 -64.484375 Z M 52.828125 -43.890625 "/></g></g><g style="fill:#253d4e;fill-opacity:1;"><g transform="translate(97.119492, 118.546193)"><path style="stroke:none" d="M 38.984375 -30.21875 C 37.117188 -31.269531 34.867188 -31.769531 32.234375 -31.71875 C 28.378906 -31.71875 25.578125 -30.617188 23.828125 -28.421875 C 22.078125 -26.234375 21.203125 -22.921875 21.203125 -18.484375 L 21.203125 0 L 5.25 0 L 5.25 -44.9375 L 21.203125 -44.9375 L 21.203125 -37.578125 L 21.375 -37.578125 C 24.289062 -42.898438 29.164062 -45.5625 36 -45.5625 L 38.984375 -45.5625 Z M 38.984375 -30.21875 "/></g></g><g style="fill:#253d4e;fill-opacity:1;"><g transform="translate(135.494203, 118.546193)"><path style="stroke:none" d=""/></g></g><g style="fill:#253d4e;fill-opacity:1;"><g transform="translate(164.230896, 118.546193)"><path style="stroke:none" d=""/></g></g><g style="fill:#253d4e;fill-opacity:1;"><g transform="translate(192.97525, 118.546193)"><path style="stroke:none" d="M 57.125 -22.34375 C 57.125 -15.5625 54.945312 -9.894531 50.59375 -5.34375 C 46.238281 -0.789062 40.910156 1.484375 34.609375 1.484375 C 31.742188 1.484375 29.113281 0.972656 26.71875 -0.046875 C 24.320312 -1.066406 22.304688 -2.484375 20.671875 -4.296875 L 20.671875 22.421875 L 4.734375 22.421875 L 4.734375 -44.9375 L 20.671875 -44.9375 L 20.671875 -39.859375 L 20.84375 -39.859375 C 22.1875 -41.960938 24.082031 -43.582031 26.53125 -44.71875 C 28.988281 -45.863281 31.648438 -46.4375 34.515625 -46.4375 C 40.878906 -46.4375 46.238281 -44.097656 50.59375 -39.421875 C 54.945312 -34.753906 57.125 -29.0625 57.125 -22.34375 Z M 30.40625 -12.359375 C 33.550781 -12.359375 36.046875 -13.289062 37.890625 -15.15625 C 39.734375 -17.019531 40.65625 -19.441406 40.65625 -22.421875 C 40.59375 -25.347656 39.625 -27.757812 37.75 -29.65625 C 35.882812 -31.550781 33.40625 -32.53125 30.3125 -32.59375 C 27.332031 -32.59375 24.894531 -31.640625 23 -29.734375 C 21.101562 -27.835938 20.15625 -25.398438 20.15625 -22.421875 C 20.15625 -19.390625 21.101562 -16.953125 23 -15.109375 C 24.894531 -13.273438 27.363281 -12.359375 30.40625 -12.359375 Z M 30.40625 -12.359375 "/></g></g><g style="fill:#253d4e;fill-opacity:1;"><g transform="translate(251.412367, 118.546193)"><path style="stroke:none" d="M 25.578125 -46.4375 C 31.128906 -46.4375 36.035156 -45.472656 40.296875 -43.546875 L 34.953125 -33.375 C 32.148438 -34.832031 29.289062 -35.5625 26.375 -35.5625 C 25.03125 -35.5625 23.859375 -35.285156 22.859375 -34.734375 C 21.867188 -34.179688 21.375 -33.4375 21.375 -32.5 C 21.375 -30.75 22.953125 -29.613281 26.109375 -29.09375 L 28.5625 -28.5625 C 37.257812 -26.976562 41.609375 -22.539062 41.609375 -15.25 C 41.609375 -10.101562 39.679688 -6.039062 35.828125 -3.0625 C 31.972656 -0.0820312 26.832031 1.429688 20.40625 1.484375 C 14.039062 1.484375 8 -0.234375 2.28125 -3.671875 L 8.0625 -14.8125 C 9.457031 -13.695312 11.425781 -12.65625 13.96875 -11.6875 C 16.507812 -10.726562 18.71875 -10.25 20.59375 -10.25 C 21.9375 -10.25 23.117188 -10.554688 24.140625 -11.171875 C 25.160156 -11.785156 25.671875 -12.617188 25.671875 -13.671875 C 25.671875 -14.722656 25.171875 -15.566406 24.171875 -16.203125 C 23.179688 -16.847656 21.519531 -17.40625 19.1875 -17.875 C 13.8125 -18.925781 10.21875 -20.441406 8.40625 -22.421875 C 6.59375 -24.410156 5.6875 -27.097656 5.6875 -30.484375 C 5.6875 -35.273438 7.523438 -39.128906 11.203125 -42.046875 C 14.890625 -44.972656 19.679688 -46.4375 25.578125 -46.4375 Z M 25.578125 -46.4375 "/></g></g><g style="fill:#253d4e;fill-opacity:1;"><g transform="translate(295.043076, 118.546193)"><path style="stroke:none" d="M 38.453125 -44.9375 L 54.40625 -44.9375 L 54.40625 0 L 38.453125 0 L 38.453125 -5 L 38.28125 -5 C 35.539062 -0.789062 31.015625 1.367188 24.703125 1.484375 C 18.398438 1.484375 13.039062 -0.789062 8.625 -5.34375 C 4.21875 -9.894531 2.015625 -15.617188 2.015625 -22.515625 C 2.015625 -29.347656 4.21875 -35.039062 8.625 -39.59375 C 13.039062 -44.15625 18.34375 -46.4375 24.53125 -46.4375 C 30.375 -46.3125 35.015625 -44.351562 38.453125 -40.5625 Z M 28.734375 -12.359375 C 31.773438 -12.359375 34.242188 -13.25 36.140625 -15.03125 C 38.035156 -16.8125 38.984375 -19.273438 38.984375 -22.421875 C 38.984375 -25.398438 38.046875 -27.835938 36.171875 -29.734375 C 34.304688 -31.640625 31.796875 -32.59375 28.640625 -32.59375 C 25.671875 -32.59375 23.234375 -31.640625 21.328125 -29.734375 C 19.429688 -27.835938 18.484375 -25.398438 18.484375 -22.421875 C 18.484375 -19.390625 19.429688 -16.953125 21.328125 -15.109375 C 23.234375 -13.273438 25.703125 -12.359375 28.734375 -12.359375 Z M 28.734375 -12.359375 "/></g></g><g style="fill:#253d4e;fill-opacity:1;"><g transform="translate(353.480194, 118.546193)"><path style="stroke:none" d="M 17.078125 -44.9375 L 29.09375 -21.90625 L 40.828125 -44.9375 L 58.96875 -44.9375 L 22.953125 22.421875 L 5.078125 22.421875 L 20.40625 -6.125 L -1.3125 -44.9375 Z M 17.078125 -44.9375 "/></g></g><g clip-rule="nonzero" clip-path="url(#f7a4534a64)"><path style=" stroke:none;fill-rule:evenodd;fill:#253d4e;fill-opacity:1;" d="M 153.382812 68.875 C 153.382812 75.113281 159.902344 82.46875 167.417969 84.703125 C 170.894531 85.738281 170.894531 85.585938 167.398438 82.28125 C 164.277344 79.328125 164.277344 79.328125 162.210938 79.179688 C 161.074219 79.09375 159.910156 78.910156 159.621094 78.769531 C 158.492188 78.21875 159.359375 76.589844 160.582031 76.957031 C 161.628906 77.273438 161.277344 76.738281 159.09375 74.679688 C 156.96875 72.675781 156.636719 72.035156 157.421875 71.414062 C 157.953125 70.996094 158.597656 71.292969 159.824219 72.515625 C 160.871094 73.558594 161.121094 73.605469 161.25 72.785156 C 161.59375 70.601562 163.410156 71.503906 163.210938 73.757812 C 163.054688 75.535156 171.898438 84.925781 172.246094 83.34375 C 172.84375 80.601562 167.472656 73.394531 162.949219 70.878906 C 159.15625 68.769531 153.382812 67.558594 153.382812 68.875 M 167.808594 71.570312 C 167.808594 71.664062 168.609375 72.570312 169.589844 73.585938 C 170.675781 74.710938 171.863281 76.375 172.632812 77.847656 C 173.890625 80.261719 173.890625 80.261719 174.5625 78.890625 C 174.929688 78.136719 175.859375 76.785156 176.628906 75.890625 C 178.34375 73.890625 178.429688 74.179688 175.847656 73.164062 C 172.976562 72.03125 167.808594 71.007812 167.808594 71.570312 M 181.992188 74.554688 C 178.570312 75.855469 175.761719 79.808594 175.152344 84.175781 C 174.519531 88.710938 181.710938 82.152344 182.980469 77.039062 C 183.691406 74.175781 183.601562 73.941406 181.992188 74.554688 M 150.976562 75.871094 C 142.417969 81.304688 137.628906 93.839844 140.804688 102.488281 C 141.21875 103.617188 141.179688 103.667969 142.695312 100.140625 C 148.660156 86.242188 157.238281 83.8125 163.59375 94.222656 C 165.980469 98.136719 165.476562 97.851562 167.445312 96.402344 C 169.300781 95.039062 170.492188 94.410156 171.789062 94.113281 C 173.820312 93.652344 172.921875 87.765625 170.789062 87.539062 C 163.859375 86.792969 156.953125 82.417969 153.84375 76.796875 C 153.242188 75.710938 152.722656 74.824219 152.6875 74.824219 C 152.652344 74.824219 151.882812 75.292969 150.976562 75.871094 M 183.945312 80.601562 C 182.339844 83.871094 179.578125 86.402344 176.660156 87.273438 C 174.398438 87.949219 174.023438 93.734375 176.222656 94.015625 C 179.691406 94.457031 184.164062 97.773438 188.160156 102.867188 C 192.707031 108.664062 193.652344 93.230469 189.257812 84.949219 C 186.582031 79.914062 184.941406 78.570312 183.945312 80.601562 M 153.984375 89.925781 C 148.996094 91.363281 141.140625 104.484375 143.160156 108 C 152.683594 124.566406 179.730469 124.882812 188.519531 108.53125 C 189.457031 106.785156 182.691406 98.894531 178.539062 96.886719 C 173.289062 94.351562 165.546875 97.714844 167.824219 101.542969 C 171.582031 107.863281 174.695312 109.621094 178.269531 107.445312 C 180.152344 106.300781 181.144531 108.050781 179.285156 109.242188 C 174.210938 112.488281 170.214844 109.980469 164.480469 99.953125 C 160.222656 92.503906 158.652344 90.613281 156.195312 89.964844 C 154.902344 89.625 155.011719 89.628906 153.984375 89.925781 M 152.09375 95.367188 C 151.671875 95.683594 151.171875 96.386719 150.980469 96.925781 C 149.996094 99.757812 153.847656 101.8125 156.113281 99.664062 C 158.699219 97.210938 154.96875 93.222656 152.09375 95.367188 M 153.191406 97.21875 C 152.921875 97.886719 153.304688 98.5 153.984375 98.5 C 154.75 98.5 155.082031 97.785156 154.582031 97.214844 C 154.105469 96.667969 153.414062 96.667969 153.191406 97.21875 M 148.507812 105.039062 C 145.84375 107.296875 148.800781 111.421875 151.976562 109.878906 C 154.207031 108.796875 154.335938 105.691406 152.1875 104.636719 C 150.820312 103.964844 149.617188 104.097656 148.507812 105.039062 M 149.792969 106.613281 C 149.375 107.09375 149.851562 108.199219 150.480469 108.199219 C 151.46875 108.199219 151.984375 106.695312 151.105469 106.375 C 150.40625 106.121094 150.191406 106.160156 149.792969 106.613281 M 159.167969 107.058594 C 157.019531 108.300781 156.304688 111.15625 157.667969 113.050781 C 160.21875 116.597656 165.804688 114.902344 165.804688 110.578125 C 165.804688 107.519531 161.925781 105.460938 159.167969 107.058594 M 159.832031 109.1875 C 158.640625 110.316406 158.875 111.925781 160.328125 112.640625 C 161.375 113.152344 162.546875 112.929688 163.15625 112.097656 C 164.785156 109.894531 161.820312 107.296875 159.832031 109.1875 "/></g><path style=" stroke:none;fill-rule:nonzero;fill:#ffffff;fill-opacity:1;" d="M 101.675781 115.8125 C 101.5625 115.703125 101.433594 115.613281 101.292969 115.542969 C 100.996094 115.398438 100.691406 115.292969 100.367188 115.226562 C 100.703125 115.246094 101.03125 115.3125 101.34375 115.433594 C 101.507812 115.496094 101.65625 115.585938 101.785156 115.699219 C 101.855469 115.761719 101.914062 115.835938 101.953125 115.921875 C 101.996094 116.019531 102.007812 116.117188 101.988281 116.21875 C 101.9375 116.410156 101.832031 116.5625 101.664062 116.671875 C 101.523438 116.773438 101.371094 116.855469 101.210938 116.917969 C 100.890625 117.035156 100.558594 117.113281 100.21875 117.148438 C 99.539062 117.226562 98.871094 117.167969 98.21875 116.96875 C 98.054688 116.917969 97.898438 116.851562 97.75 116.765625 C 97.59375 116.683594 97.460938 116.570312 97.351562 116.429688 C 97.230469 116.265625 97.21875 116.09375 97.3125 115.914062 C 97.40625 115.769531 97.535156 115.660156 97.695312 115.589844 C 97.554688 115.679688 97.449219 115.796875 97.375 115.945312 C 97.3125 116.097656 97.339844 116.234375 97.449219 116.359375 C 97.554688 116.472656 97.679688 116.5625 97.828125 116.625 C 97.972656 116.691406 98.121094 116.746094 98.273438 116.785156 C 98.585938 116.867188 98.90625 116.914062 99.226562 116.929688 C 99.550781 116.949219 99.871094 116.9375 100.195312 116.902344 C 100.511719 116.875 100.824219 116.804688 101.125 116.699219 C 101.273438 116.648438 101.414062 116.582031 101.542969 116.496094 C 101.667969 116.421875 101.753906 116.316406 101.804688 116.179688 C 101.820312 116.113281 101.816406 116.050781 101.792969 115.988281 C 101.761719 115.921875 101.722656 115.863281 101.675781 115.8125 Z M 101.675781 115.8125 "/><path style=" stroke:none;fill-rule:nonzero;fill:#ffffff;fill-opacity:1;" d="M 100.316406 117.554688 C 99.765625 117.59375 99.21875 117.585938 98.671875 117.527344 C 98.117188 117.476562 97.582031 117.351562 97.0625 117.15625 C 96.796875 117.058594 96.554688 116.917969 96.335938 116.738281 C 96.222656 116.640625 96.132812 116.519531 96.074219 116.382812 C 96.046875 116.308594 96.035156 116.234375 96.035156 116.15625 C 96.039062 116.078125 96.058594 116.007812 96.089844 115.9375 C 96.15625 115.804688 96.246094 115.695312 96.367188 115.605469 C 96.476562 115.523438 96.59375 115.449219 96.71875 115.390625 C 96.96875 115.273438 97.226562 115.1875 97.492188 115.128906 C 97.234375 115.210938 96.988281 115.320312 96.75 115.449219 C 96.523438 115.582031 96.292969 115.753906 96.203125 115.984375 C 96.183594 116.039062 96.171875 116.097656 96.171875 116.15625 C 96.171875 116.21875 96.1875 116.273438 96.210938 116.328125 C 96.265625 116.441406 96.34375 116.539062 96.441406 116.613281 C 96.652344 116.773438 96.882812 116.894531 97.132812 116.976562 C 97.640625 117.144531 98.160156 117.25 98.695312 117.292969 C 99.226562 117.34375 99.761719 117.347656 100.296875 117.304688 C 100.832031 117.273438 101.351562 117.179688 101.863281 117.023438 C 102.117188 116.949219 102.355469 116.847656 102.582031 116.710938 C 102.792969 116.578125 102.992188 116.390625 103 116.171875 C 102.996094 116.050781 102.957031 115.949219 102.882812 115.855469 L 102.828125 115.785156 L 102.757812 115.722656 C 102.710938 115.679688 102.660156 115.636719 102.605469 115.601562 C 102.386719 115.453125 102.148438 115.339844 101.898438 115.253906 C 101.644531 115.164062 101.382812 115.089844 101.121094 115.035156 C 100.855469 114.976562 100.589844 114.9375 100.320312 114.898438 C 100.867188 114.910156 101.40625 114.992188 101.933594 115.136719 C 102.203125 115.210938 102.457031 115.320312 102.699219 115.464844 C 102.757812 115.5 102.816406 115.542969 102.871094 115.589844 L 102.953125 115.660156 L 103.027344 115.742188 C 103.140625 115.867188 103.195312 116.011719 103.195312 116.175781 C 103.195312 116.34375 103.140625 116.484375 103.027344 116.609375 C 102.933594 116.722656 102.824219 116.816406 102.699219 116.894531 C 102.460938 117.046875 102.207031 117.164062 101.9375 117.25 C 101.40625 117.414062 100.867188 117.515625 100.316406 117.554688 Z M 100.316406 117.554688 "/><path style=" stroke:none;fill-rule:nonzero;fill:#ffffff;fill-opacity:1;" d="M 111.644531 115.4375 C 111.445312 115.382812 111.25 115.320312 111.058594 115.246094 C 110.867188 115.175781 110.679688 115.089844 110.515625 115.03125 C 110.351562 114.972656 110.183594 114.949219 110.007812 114.960938 C 109.828125 114.992188 109.648438 115.039062 109.476562 115.109375 C 109.105469 115.238281 108.722656 115.386719 108.3125 115.429688 C 107.898438 115.480469 107.503906 115.414062 107.132812 115.226562 C 107.515625 115.332031 107.898438 115.339844 108.28125 115.242188 C 108.46875 115.203125 108.652344 115.144531 108.828125 115.066406 C 109.007812 114.992188 109.1875 114.914062 109.367188 114.832031 C 109.558594 114.738281 109.757812 114.671875 109.964844 114.632812 C 110.1875 114.601562 110.410156 114.621094 110.625 114.691406 C 110.832031 114.753906 111.007812 114.832031 111.1875 114.898438 C 111.367188 114.964844 111.546875 115.019531 111.734375 115.066406 C 112.457031 115.257812 113.222656 115.117188 113.914062 114.792969 C 114.277344 114.625 114.6875 114.464844 115.113281 114.511719 C 115.328125 114.53125 115.523438 114.605469 115.695312 114.738281 C 115.859375 114.867188 115.976562 115.027344 116.046875 115.226562 C 115.835938 114.859375 115.523438 114.683594 115.105469 114.695312 C 115.011719 114.695312 114.921875 114.707031 114.832031 114.722656 C 114.738281 114.746094 114.652344 114.773438 114.5625 114.804688 C 114.386719 114.875 114.214844 114.957031 114.050781 115.050781 C 113.6875 115.257812 113.300781 115.398438 112.890625 115.476562 C 112.472656 115.546875 112.058594 115.535156 111.644531 115.4375 Z M 111.644531 115.4375 "/><path style=" stroke:none;fill-rule:nonzero;fill:#ffffff;fill-opacity:1;" d="M 102.550781 112.9375 C 102.390625 113.300781 102.296875 113.683594 102.265625 114.082031 C 102.371094 114.101562 102.480469 114.105469 102.585938 114.085938 C 102.472656 114.210938 102.332031 114.273438 102.164062 114.265625 C 102.121094 114.265625 102.082031 114.265625 102.042969 114.257812 L 101.941406 114.246094 C 101.878906 114.238281 101.816406 114.234375 101.757812 114.238281 C 101.695312 114.242188 101.632812 114.25 101.570312 114.265625 C 101.535156 114.273438 101.503906 114.277344 101.460938 114.285156 C 101.410156 114.292969 101.363281 114.289062 101.3125 114.277344 C 101.226562 114.25 101.15625 114.207031 101.097656 114.140625 C 101.074219 114.109375 101.050781 114.085938 101.027344 114.0625 C 101.003906 114.039062 100.976562 114.027344 100.941406 114.039062 C 100.953125 114.019531 100.96875 114.007812 100.988281 114 C 101.011719 113.996094 101.035156 113.996094 101.058594 114 C 101.097656 114.007812 101.136719 114.019531 101.171875 114.035156 L 101.207031 114.046875 C 101.1875 113.8125 101.113281 113.21875 100.816406 112.730469 C 100.441406 112.105469 99.953125 112.367188 99.953125 112.367188 C 99.953125 112.367188 100.507812 111.84375 100.882812 112.445312 C 101.195312 112.949219 101.351562 113.792969 101.394531 114.066406 L 101.410156 114.0625 L 101.46875 114.042969 C 101.46875 113.644531 101.445312 112.292969 101.144531 112.070312 C 100.792969 111.808594 100.5 111.949219 100.5 111.949219 C 100.5 111.949219 101.15625 111.570312 101.40625 112.195312 C 101.605469 112.691406 101.601562 113.636719 101.597656 114.007812 C 101.617188 114 101.640625 113.996094 101.664062 113.992188 C 101.664062 113.398438 101.65625 111.410156 101.722656 111.363281 C 101.789062 111.316406 101.816406 113.371094 101.816406 113.984375 C 101.839844 113.984375 101.863281 113.984375 101.882812 113.988281 C 101.875 113.613281 101.875 112.6875 102.074219 112.199219 C 102.324219 111.574219 102.980469 111.953125 102.980469 111.953125 C 102.980469 111.953125 102.6875 111.8125 102.335938 112.074219 C 102.042969 112.289062 102.011719 113.585938 102.011719 114.015625 C 102.035156 114.023438 102.0625 114.03125 102.089844 114.039062 C 102.140625 113.742188 102.292969 112.9375 102.59375 112.453125 C 102.96875 111.851562 103.527344 112.371094 103.527344 112.371094 C 103.527344 112.371094 103.039062 112.113281 102.664062 112.734375 C 102.632812 112.785156 102.609375 112.832031 102.582031 112.882812 C 102.816406 112.761719 103.0625 112.691406 103.328125 112.679688 C 103.667969 112.675781 104 112.734375 104.324219 112.847656 C 104.402344 112.875 104.480469 112.898438 104.558594 112.925781 C 104.636719 112.953125 104.714844 112.988281 104.785156 113.011719 C 104.855469 113.035156 104.933594 113.0625 105.007812 113.082031 C 105.082031 113.101562 105.152344 113.117188 105.230469 113.132812 C 105.53125 113.195312 105.832031 113.207031 106.136719 113.167969 C 106.445312 113.128906 106.746094 113.054688 107.035156 112.941406 C 107.183594 112.890625 107.332031 112.832031 107.476562 112.765625 C 107.546875 112.734375 107.617188 112.699219 107.691406 112.664062 C 107.765625 112.632812 107.855469 112.597656 107.933594 112.570312 C 108.289062 112.445312 108.636719 112.46875 108.972656 112.640625 C 109.125 112.71875 109.261719 112.820312 109.382812 112.941406 C 109.5 113.058594 109.601562 113.191406 109.683594 113.335938 C 109.570312 113.21875 109.449219 113.113281 109.316406 113.023438 C 109.1875 112.929688 109.046875 112.859375 108.898438 112.8125 C 108.757812 112.761719 108.613281 112.738281 108.460938 112.746094 C 108.386719 112.75 108.316406 112.761719 108.246094 112.773438 C 108.175781 112.792969 108.105469 112.816406 108.039062 112.847656 C 107.972656 112.882812 107.914062 112.90625 107.839844 112.949219 C 107.765625 112.992188 107.695312 113.03125 107.617188 113.066406 C 107.472656 113.144531 107.320312 113.214844 107.164062 113.28125 C 106.847656 113.414062 106.519531 113.5 106.183594 113.546875 C 105.835938 113.585938 105.492188 113.566406 105.152344 113.488281 C 105.066406 113.464844 104.984375 113.445312 104.902344 113.414062 C 104.824219 113.382812 104.742188 113.355469 104.664062 113.320312 C 104.507812 113.253906 104.371094 113.1875 104.21875 113.128906 C 103.933594 112.996094 103.632812 112.910156 103.320312 112.867188 C 103.0625 112.839844 102.804688 112.863281 102.550781 112.9375 Z M 102.550781 112.9375 "/><path style=" stroke:none;fill-rule:nonzero;fill:#ffffff;fill-opacity:1;" d="M 85.269531 114.5625 C 85.761719 114.535156 86.238281 114.441406 86.699219 114.285156 C 86.933594 114.207031 87.167969 114.121094 87.425781 114.0625 C 87.683594 114 87.945312 113.976562 88.210938 113.984375 C 88.734375 114.003906 89.234375 114.132812 89.714844 114.242188 C 90.195312 114.351562 90.667969 114.449219 91.136719 114.421875 C 91.367188 114.410156 91.589844 114.359375 91.804688 114.269531 C 92.023438 114.171875 92.230469 114.058594 92.433594 113.925781 L 92.746094 113.726562 L 92.90625 113.628906 L 93.085938 113.535156 C 93.335938 113.425781 93.597656 113.382812 93.871094 113.40625 C 94.128906 113.433594 94.375 113.507812 94.605469 113.628906 C 94.832031 113.742188 95.039062 113.890625 95.21875 114.066406 C 95.015625 113.921875 94.796875 113.808594 94.5625 113.722656 C 94.339844 113.636719 94.105469 113.589844 93.863281 113.589844 C 93.625 113.589844 93.402344 113.644531 93.195312 113.757812 L 93.046875 113.847656 L 92.898438 113.953125 L 92.59375 114.171875 C 92.386719 114.328125 92.167969 114.464844 91.933594 114.574219 C 91.6875 114.6875 91.429688 114.757812 91.15625 114.78125 C 90.894531 114.800781 90.636719 114.789062 90.375 114.753906 C 90.25 114.734375 90.121094 114.714844 89.996094 114.691406 C 89.867188 114.664062 89.746094 114.640625 89.621094 114.613281 L 89.257812 114.523438 C 89.140625 114.492188 89.019531 114.46875 88.902344 114.445312 C 88.667969 114.394531 88.429688 114.363281 88.191406 114.347656 C 87.953125 114.332031 87.722656 114.34375 87.488281 114.390625 C 87.257812 114.433594 87.023438 114.507812 86.777344 114.570312 C 86.53125 114.636719 86.28125 114.6875 86.03125 114.722656 C 85.777344 114.753906 85.523438 114.765625 85.269531 114.753906 C 84.761719 114.71875 84.242188 114.585938 83.851562 114.261719 C 84.285156 114.503906 84.789062 114.578125 85.269531 114.5625 Z M 85.269531 114.5625 "/><g clip-rule="nonzero" clip-path="url(#993a2595b3)"><path style=" stroke:none;fill-rule:nonzero;fill:#ffffff;fill-opacity:1;" d="M 94.234375 118.40625 C 94.449219 118.378906 94.660156 118.386719 94.871094 118.4375 C 95.074219 118.488281 95.269531 118.550781 95.460938 118.628906 C 95.824219 118.769531 96.203125 118.863281 96.589844 118.90625 C 96.972656 118.945312 97.355469 118.925781 97.734375 118.847656 C 97.925781 118.8125 98.113281 118.769531 98.304688 118.71875 C 98.402344 118.691406 98.496094 118.664062 98.601562 118.640625 C 98.703125 118.609375 98.804688 118.589844 98.910156 118.574219 C 99.324219 118.515625 99.742188 118.511719 100.15625 118.554688 C 100.972656 118.640625 101.757812 118.84375 102.511719 119.167969 C 101.730469 118.992188 100.9375 118.886719 100.136719 118.847656 C 99.746094 118.835938 99.359375 118.859375 98.972656 118.929688 C 98.878906 118.945312 98.785156 118.96875 98.695312 118.992188 C 98.605469 119.015625 98.503906 119.046875 98.410156 119.074219 C 98.210938 119.132812 98.007812 119.179688 97.804688 119.21875 C 97.386719 119.300781 96.96875 119.316406 96.546875 119.265625 C 96.128906 119.203125 95.730469 119.082031 95.351562 118.902344 C 95.175781 118.816406 94.992188 118.742188 94.808594 118.679688 C 94.628906 118.617188 94.441406 118.585938 94.25 118.59375 C 93.871094 118.601562 93.496094 118.789062 93.121094 118.925781 C 93.292969 118.820312 93.460938 118.710938 93.640625 118.617188 C 93.828125 118.515625 94.023438 118.445312 94.234375 118.40625 Z M 94.234375 118.40625 "/></g><path style=" stroke:none;fill-rule:nonzero;fill:#ffffff;fill-opacity:1;" d="M 87.390625 117.007812 C 87.546875 116.945312 87.71875 116.855469 87.902344 116.789062 C 88.089844 116.71875 88.277344 116.671875 88.476562 116.640625 C 88.878906 116.589844 89.269531 116.640625 89.648438 116.792969 C 89.996094 116.933594 90.335938 117.09375 90.667969 117.269531 C 90.953125 117.433594 91.296875 117.449219 91.640625 117.398438 C 91.996094 117.335938 92.335938 117.230469 92.664062 117.078125 C 93 116.925781 93.324219 116.753906 93.636719 116.554688 C 93.367188 116.816406 93.070312 117.046875 92.75 117.242188 C 92.421875 117.445312 92.074219 117.59375 91.699219 117.6875 C 91.507812 117.738281 91.308594 117.757812 91.109375 117.746094 C 90.898438 117.734375 90.699219 117.683594 90.511719 117.589844 C 90.175781 117.4375 89.84375 117.265625 89.515625 117.148438 C 89.195312 117.011719 88.863281 116.960938 88.519531 116.996094 C 88.34375 117.011719 88.175781 117.046875 88.011719 117.101562 C 87.925781 117.125 87.84375 117.160156 87.761719 117.191406 L 87.492188 117.285156 C 86.722656 117.53125 85.984375 117.460938 85.273438 117.078125 C 85.984375 117.300781 86.691406 117.277344 87.390625 117.007812 Z M 87.390625 117.007812 "/><path style=" stroke:none;fill-rule:nonzero;fill:#ffffff;fill-opacity:1;" d="M 105.523438 118.371094 C 105.722656 118.304688 105.921875 118.234375 106.125 118.160156 C 106.328125 118.082031 106.535156 118.015625 106.746094 117.960938 C 106.972656 117.902344 107.199219 117.878906 107.433594 117.898438 C 107.667969 117.921875 107.890625 117.980469 108.101562 118.078125 C 108.304688 118.164062 108.5 118.261719 108.683594 118.34375 C 108.851562 118.433594 109.027344 118.472656 109.214844 118.46875 C 109.414062 118.453125 109.605469 118.414062 109.796875 118.355469 C 109.996094 118.300781 110.195312 118.234375 110.398438 118.164062 C 110.492188 118.132812 110.597656 118.097656 110.703125 118.070312 L 110.863281 118.023438 C 110.917969 118.011719 110.972656 118.003906 111.027344 117.992188 C 111.933594 117.796875 112.765625 117.964844 113.527344 118.496094 C 112.742188 118.125 111.933594 118.054688 111.09375 118.277344 C 110.714844 118.386719 110.316406 118.570312 109.898438 118.703125 C 109.683594 118.773438 109.460938 118.820312 109.234375 118.839844 C 108.984375 118.851562 108.75 118.800781 108.53125 118.695312 C 108.128906 118.507812 107.777344 118.296875 107.398438 118.257812 C 107.019531 118.203125 106.625 118.332031 106.214844 118.449219 C 106.011719 118.507812 105.804688 118.566406 105.59375 118.613281 C 105.375 118.664062 105.152344 118.683594 104.925781 118.664062 C 104.460938 118.621094 104.089844 118.414062 103.804688 118.042969 C 104.121094 118.332031 104.496094 118.476562 104.929688 118.472656 C 105.132812 118.46875 105.332031 118.4375 105.523438 118.371094 Z M 105.523438 118.371094 "/><g clip-rule="nonzero" clip-path="url(#f8571bade0)"><path style=" stroke:none;fill-rule:nonzero;fill:#ffffff;fill-opacity:1;" d="M 115.257812 112.765625 C 115.148438 112.738281 115.042969 112.699219 114.941406 112.65625 L 114.675781 112.523438 C 114.507812 112.464844 114.339844 112.449219 114.164062 112.476562 C 113.976562 112.511719 113.789062 112.558594 113.605469 112.625 C 113.414062 112.683594 113.222656 112.757812 113.027344 112.820312 C 112.933594 112.851562 112.828125 112.878906 112.726562 112.90625 L 112.570312 112.9375 C 112.519531 112.949219 112.464844 112.953125 112.410156 112.960938 C 111.972656 112.996094 111.578125 112.878906 111.234375 112.605469 C 111.597656 112.796875 111.980469 112.855469 112.386719 112.773438 C 112.433594 112.765625 112.480469 112.753906 112.527344 112.742188 L 112.664062 112.699219 C 112.757812 112.664062 112.847656 112.625 112.941406 112.585938 L 113.503906 112.347656 C 113.699219 112.257812 113.902344 112.191406 114.109375 112.148438 C 114.34375 112.101562 114.578125 112.113281 114.804688 112.1875 C 114.859375 112.210938 114.914062 112.238281 114.964844 112.261719 C 115.015625 112.285156 115.046875 112.304688 115.089844 112.320312 C 115.171875 112.355469 115.261719 112.382812 115.347656 112.40625 C 115.53125 112.445312 115.71875 112.464844 115.90625 112.460938 C 116.292969 112.445312 116.671875 112.375 117.039062 112.246094 C 117.230469 112.1875 117.410156 112.113281 117.59375 112.039062 C 117.792969 111.953125 118.003906 111.898438 118.21875 111.867188 C 118.636719 111.808594 119.050781 111.8125 119.46875 111.878906 C 119.878906 111.9375 120.277344 112.042969 120.664062 112.191406 C 120.261719 112.121094 119.859375 112.078125 119.457031 112.0625 C 119.058594 112.046875 118.664062 112.078125 118.277344 112.160156 C 118.089844 112.203125 117.910156 112.261719 117.734375 112.34375 C 117.542969 112.429688 117.351562 112.519531 117.164062 112.589844 C 116.964844 112.660156 116.761719 112.71875 116.554688 112.761719 C 116.34375 112.808594 116.128906 112.835938 115.914062 112.84375 C 115.691406 112.84375 115.472656 112.820312 115.257812 112.765625 Z M 115.257812 112.765625 "/></g><path style=" stroke:none;fill-rule:nonzero;fill:#ffffff;fill-opacity:1;" d="M 93.972656 111.328125 C 93.78125 111.402344 93.585938 111.449219 93.382812 111.472656 C 93.171875 111.496094 92.964844 111.480469 92.757812 111.429688 C 92.566406 111.378906 92.378906 111.316406 92.195312 111.238281 C 92.027344 111.164062 91.855469 111.105469 91.679688 111.054688 C 91.511719 111.011719 91.339844 110.984375 91.164062 110.976562 C 90.992188 110.96875 90.828125 110.996094 90.667969 111.054688 C 90.503906 111.113281 90.328125 111.195312 90.140625 111.261719 C 89.957031 111.332031 89.765625 111.382812 89.570312 111.417969 C 89.371094 111.453125 89.171875 111.460938 88.972656 111.4375 C 88.574219 111.390625 88.222656 111.234375 87.921875 110.96875 C 88.253906 111.160156 88.605469 111.253906 88.988281 111.257812 C 89.167969 111.253906 89.34375 111.230469 89.519531 111.183594 C 89.695312 111.128906 89.867188 111.066406 90.03125 110.992188 C 90.199219 110.914062 90.363281 110.820312 90.550781 110.746094 C 90.75 110.664062 90.953125 110.621094 91.167969 110.621094 C 91.375 110.621094 91.574219 110.648438 91.773438 110.699219 C 91.964844 110.75 92.152344 110.8125 92.335938 110.886719 C 92.503906 110.960938 92.671875 111.023438 92.847656 111.070312 C 93.011719 111.113281 93.183594 111.128906 93.355469 111.117188 C 93.53125 111.105469 93.703125 111.070312 93.871094 111.015625 C 93.957031 110.988281 94.042969 110.957031 94.125 110.921875 L 94.390625 110.820312 C 94.761719 110.675781 95.140625 110.59375 95.535156 110.570312 C 95.722656 110.558594 95.910156 110.566406 96.09375 110.589844 C 95.847656 109.601562 95.695312 108.320312 95.613281 107.453125 C 95.625 107.441406 95.632812 107.425781 95.636719 107.410156 C 95.636719 107.382812 95.628906 107.359375 95.605469 107.34375 C 95.570312 106.992188 95.550781 106.71875 95.539062 106.582031 C 95.714844 106.570312 95.90625 106.566406 96.105469 106.566406 C 97.199219 106.585938 98.289062 106.660156 99.375 106.792969 C 99.363281 106.949219 99.347656 107.078125 99.339844 107.171875 C 99.332031 107.28125 99.320312 107.339844 99.320312 107.34375 C 99.320312 107.367188 99.328125 107.390625 99.34375 107.40625 C 99.359375 108.15625 99.40625 110.574219 99.503906 112.023438 C 99.515625 112.242188 99.53125 112.441406 99.550781 112.605469 C 99.683594 113.941406 100.472656 116.039062 100.632812 116.457031 C 99.75 116.675781 98.921875 116.546875 98.140625 116.078125 C 98.019531 115.777344 96.691406 112.535156 96.210938 111.007812 C 96.179688 110.90625 96.152344 110.800781 96.121094 110.691406 L 96.113281 110.691406 C 95.925781 110.695312 95.742188 110.714844 95.558594 110.75 C 95.191406 110.816406 94.84375 110.925781 94.507812 111.085938 C 94.332031 111.175781 94.15625 111.257812 93.972656 111.328125 Z M 93.972656 111.328125 "/><path style=" stroke:none;fill-rule:nonzero;fill:#ffffff;fill-opacity:1;" d="M 107.179688 109.640625 C 106.871094 109.628906 106.5625 109.648438 106.257812 109.695312 C 106.183594 109.707031 106.109375 109.722656 106.035156 109.738281 C 105.957031 109.757812 105.882812 109.773438 105.808594 109.792969 C 105.660156 109.828125 105.507812 109.875 105.351562 109.914062 C 105.027344 110.011719 104.695312 110.0625 104.355469 110.054688 C 104.183594 110.042969 104.011719 110.007812 103.847656 109.953125 C 103.6875 109.898438 103.535156 109.835938 103.386719 109.761719 C 103.238281 109.6875 103.101562 109.605469 102.960938 109.53125 C 102.820312 109.457031 102.691406 109.382812 102.550781 109.316406 C 102.167969 109.136719 101.773438 108.992188 101.367188 108.878906 C 100.921875 109.9375 100.34375 110.921875 99.632812 111.828125 C 99.546875 110.40625 99.503906 108.238281 99.488281 107.464844 C 100.222656 107.6875 100.972656 107.824219 101.738281 107.878906 C 101.691406 108.023438 101.589844 108.335938 101.414062 108.753906 C 101.84375 108.796875 102.261719 108.894531 102.667969 109.046875 C 102.820312 109.101562 102.96875 109.164062 103.117188 109.238281 C 103.261719 109.308594 103.398438 109.375 103.539062 109.4375 C 103.804688 109.566406 104.085938 109.648438 104.382812 109.675781 C 104.660156 109.699219 104.960938 109.632812 105.265625 109.566406 C 105.421875 109.535156 105.574219 109.5 105.734375 109.472656 C 105.894531 109.4375 106.058594 109.417969 106.222656 109.40625 C 106.550781 109.382812 106.875 109.398438 107.199219 109.460938 C 107.359375 109.492188 107.515625 109.539062 107.667969 109.601562 C 107.824219 109.65625 107.957031 109.746094 108.066406 109.875 C 107.9375 109.78125 107.792969 109.726562 107.636719 109.699219 C 107.484375 109.667969 107.332031 109.648438 107.179688 109.640625 Z M 107.179688 109.640625 "/><path style=" stroke:none;fill-rule:nonzero;fill:#ffffff;fill-opacity:1;" d="M 108.578125 108.496094 C 108.578125 108.496094 109.367188 107.753906 109.902344 108.609375 C 110.34375 109.320312 110.570312 110.523438 110.625 110.910156 L 110.652344 110.902344 L 110.734375 110.871094 C 110.734375 110.304688 110.699219 108.382812 110.273438 108.066406 C 109.773438 107.699219 109.351562 107.898438 109.351562 107.898438 C 109.351562 107.898438 110.289062 107.359375 110.644531 108.246094 C 110.929688 108.953125 110.921875 110.296875 110.910156 110.820312 C 110.941406 110.8125 110.972656 110.804688 111.003906 110.800781 C 111.003906 109.960938 110.992188 107.128906 111.085938 107.0625 C 111.183594 106.992188 111.222656 109.90625 111.230469 110.785156 C 111.261719 110.785156 111.292969 110.789062 111.328125 110.792969 C 111.3125 110.257812 111.3125 108.941406 111.59375 108.246094 C 111.949219 107.359375 112.882812 107.898438 112.882812 107.898438 C 112.882812 107.898438 112.464844 107.699219 111.964844 108.070312 C 111.546875 108.378906 111.507812 110.21875 111.503906 110.835938 C 111.542969 110.84375 111.582031 110.855469 111.617188 110.867188 C 111.6875 110.445312 111.90625 109.300781 112.335938 108.613281 C 112.867188 107.753906 113.660156 108.5 113.660156 108.5 C 113.660156 108.5 112.964844 108.128906 112.433594 109.015625 C 111.992188 109.75 111.894531 110.644531 111.871094 110.9375 C 112.023438 110.96875 112.175781 110.96875 112.328125 110.945312 C 112.167969 111.125 111.964844 111.214844 111.722656 111.207031 C 111.667969 111.207031 111.609375 111.203125 111.550781 111.195312 L 111.40625 111.179688 C 111.320312 111.167969 111.234375 111.160156 111.144531 111.164062 C 111.058594 111.171875 110.96875 111.183594 110.882812 111.207031 C 110.828125 111.214844 110.785156 111.226562 110.722656 111.230469 C 110.652344 111.242188 110.582031 111.238281 110.515625 111.21875 C 110.394531 111.183594 110.292969 111.121094 110.210938 111.023438 C 110.175781 110.984375 110.144531 110.949219 110.117188 110.917969 C 110.078125 110.878906 110.035156 110.863281 109.980469 110.878906 C 109.992188 110.871094 110 110.859375 110.011719 110.847656 C 110.023438 110.839844 110.039062 110.832031 110.050781 110.824219 C 110.082031 110.816406 110.113281 110.816406 110.148438 110.820312 C 110.203125 110.832031 110.257812 110.847656 110.308594 110.867188 L 110.363281 110.878906 C 110.335938 110.546875 110.226562 109.707031 109.808594 109.007812 C 109.273438 108.121094 108.578125 108.496094 108.578125 108.496094 Z M 108.578125 108.496094 "/><path style=" stroke:none;fill-rule:nonzero;fill:#ffffff;fill-opacity:1;" d="M 104.492188 115.691406 C 104.804688 116.195312 104.960938 117.039062 105.003906 117.3125 L 105.019531 117.308594 L 105.078125 117.289062 C 105.078125 116.890625 105.054688 115.539062 104.753906 115.316406 C 104.402344 115.054688 104.105469 115.199219 104.105469 115.199219 C 104.105469 115.199219 104.765625 114.816406 105.015625 115.441406 C 105.214844 115.9375 105.210938 116.882812 105.207031 117.253906 C 105.226562 117.246094 105.25 117.242188 105.273438 117.238281 C 105.273438 116.648438 105.265625 114.65625 105.332031 114.609375 C 105.398438 114.5625 105.425781 116.617188 105.429688 117.230469 C 105.453125 117.230469 105.476562 117.230469 105.496094 117.234375 C 105.488281 116.859375 105.488281 115.933594 105.6875 115.445312 C 105.9375 114.820312 106.597656 115.199219 106.597656 115.199219 C 106.597656 115.199219 106.300781 115.058594 105.949219 115.320312 C 105.65625 115.535156 105.625 116.832031 105.625 117.261719 C 105.652344 117.269531 105.679688 117.277344 105.707031 117.285156 C 105.753906 116.988281 105.910156 116.183594 106.210938 115.699219 C 106.585938 115.097656 107.140625 115.621094 107.140625 115.621094 C 107.140625 115.621094 106.652344 115.359375 106.277344 115.984375 C 105.96875 116.5 105.894531 117.128906 105.882812 117.335938 C 105.992188 117.355469 106.097656 117.359375 106.203125 117.339844 C 106.089844 117.46875 105.949219 117.527344 105.777344 117.523438 C 105.738281 117.523438 105.699219 117.523438 105.660156 117.515625 L 105.554688 117.503906 C 105.496094 117.496094 105.433594 117.492188 105.371094 117.496094 C 105.308594 117.5 105.25 117.507812 105.1875 117.523438 C 105.148438 117.53125 105.121094 117.535156 105.074219 117.542969 C 105.027344 117.546875 104.976562 117.546875 104.929688 117.535156 C 104.84375 117.507812 104.773438 117.460938 104.714844 117.394531 C 104.691406 117.367188 104.667969 117.34375 104.644531 117.320312 C 104.621094 117.292969 104.59375 117.285156 104.558594 117.296875 C 104.570312 117.277344 104.585938 117.265625 104.605469 117.257812 C 104.628906 117.253906 104.652344 117.253906 104.671875 117.257812 C 104.710938 117.265625 104.75 117.277344 104.789062 117.292969 L 104.824219 117.304688 C 104.804688 117.070312 104.726562 116.476562 104.433594 115.988281 C 104.058594 115.363281 103.570312 115.625 103.570312 115.625 C 103.570312 115.625 104.117188 115.089844 104.492188 115.691406 Z M 104.492188 115.691406 "/><g clip-rule="nonzero" clip-path="url(#a1da68ba6d)"><path style=" stroke:none;fill-rule:nonzero;fill:#ffffff;fill-opacity:1;" d="M 119.066406 109.417969 C 118.609375 110.183594 118.507812 111.113281 118.484375 111.414062 C 118.640625 111.449219 118.796875 111.449219 118.957031 111.421875 C 118.789062 111.613281 118.582031 111.703125 118.328125 111.695312 C 118.269531 111.695312 118.210938 111.691406 118.152344 111.683594 L 118 111.667969 C 117.910156 111.652344 117.820312 111.648438 117.730469 111.652344 C 117.636719 111.660156 117.546875 111.671875 117.457031 111.695312 C 117.402344 111.703125 117.359375 111.710938 117.289062 111.71875 C 117.21875 111.730469 117.144531 111.726562 117.074219 111.710938 C 116.949219 111.671875 116.84375 111.605469 116.757812 111.507812 C 116.722656 111.464844 116.6875 111.425781 116.65625 111.394531 C 116.621094 111.355469 116.578125 111.34375 116.527344 111.355469 C 116.535156 111.34375 116.542969 111.332031 116.554688 111.324219 C 116.570312 111.3125 116.582031 111.304688 116.597656 111.300781 C 116.628906 111.292969 116.660156 111.292969 116.691406 111.300781 C 116.75 111.3125 116.808594 111.328125 116.863281 111.347656 L 116.914062 111.367188 C 116.886719 111.023438 116.769531 110.148438 116.339844 109.425781 C 115.789062 108.503906 115.066406 108.886719 115.066406 108.886719 C 115.066406 108.886719 115.890625 108.117188 116.441406 109.003906 C 116.902344 109.746094 117.132812 110.996094 117.195312 111.390625 L 117.21875 111.382812 L 117.304688 111.351562 C 117.304688 110.761719 117.269531 108.769531 116.828125 108.441406 C 116.308594 108.058594 115.875 108.265625 115.875 108.265625 C 115.875 108.265625 116.847656 107.703125 117.21875 108.625 C 117.511719 109.359375 117.503906 110.753906 117.492188 111.292969 C 117.523438 111.285156 117.558594 111.277344 117.589844 111.273438 C 117.589844 110.398438 117.574219 107.460938 117.675781 107.390625 C 117.773438 107.320312 117.8125 110.347656 117.824219 111.261719 C 117.855469 111.261719 117.886719 111.261719 117.917969 111.269531 C 117.90625 110.710938 117.90625 109.347656 118.195312 108.625 C 118.5625 107.699219 119.535156 108.261719 119.535156 108.261719 C 119.535156 108.261719 119.101562 108.054688 118.582031 108.4375 C 118.152344 108.757812 118.105469 110.671875 118.105469 111.308594 C 118.144531 111.320312 118.1875 111.332031 118.226562 111.34375 C 118.296875 110.902344 118.523438 109.714844 118.96875 109 C 119.519531 108.113281 120.339844 108.882812 120.339844 108.882812 C 120.339844 108.882812 119.613281 108.496094 119.066406 109.417969 Z M 119.066406 109.417969 "/></g><path style=" stroke:none;fill-rule:nonzero;fill:#ffffff;fill-opacity:1;" d="M 108.074219 104.472656 C 107.617188 105.234375 107.515625 106.167969 107.492188 106.46875 C 107.652344 106.5 107.8125 106.503906 107.972656 106.476562 C 107.828125 106.660156 107.578125 106.742188 107.34375 106.746094 C 107.285156 106.746094 107.226562 106.746094 107.167969 106.738281 L 107.015625 106.71875 C 106.925781 106.707031 106.835938 106.703125 106.742188 106.703125 C 106.652344 106.710938 106.558594 106.726562 106.46875 106.746094 C 106.414062 106.757812 106.375 106.765625 106.304688 106.773438 C 106.230469 106.785156 106.160156 106.78125 106.089844 106.761719 C 105.964844 106.726562 105.859375 106.660156 105.773438 106.558594 C 105.742188 106.519531 105.707031 106.484375 105.667969 106.449219 C 105.632812 106.410156 105.589844 106.398438 105.539062 106.410156 C 105.546875 106.398438 105.558594 106.386719 105.570312 106.378906 C 105.582031 106.367188 105.597656 106.359375 105.613281 106.355469 C 105.644531 106.347656 105.675781 106.347656 105.707031 106.355469 C 105.765625 106.363281 105.824219 106.378906 105.882812 106.398438 L 105.933594 106.417969 C 105.90625 106.074219 105.789062 105.195312 105.355469 104.472656 C 104.804688 103.550781 104.082031 103.9375 104.082031 103.9375 C 104.082031 103.9375 104.902344 103.164062 105.457031 104.054688 C 105.917969 104.792969 106.148438 106.042969 106.210938 106.4375 L 106.234375 106.429688 L 106.320312 106.402344 C 106.320312 105.8125 106.285156 103.816406 105.84375 103.488281 C 105.324219 103.109375 104.890625 103.3125 104.890625 103.3125 C 104.890625 103.3125 105.863281 102.75 106.234375 103.671875 C 106.527344 104.40625 106.519531 105.804688 106.507812 106.34375 C 106.539062 106.335938 106.574219 106.328125 106.605469 106.320312 C 106.601562 105.449219 106.589844 102.511719 106.691406 102.441406 C 106.789062 102.367188 106.828125 105.394531 106.839844 106.308594 C 106.871094 106.308594 106.902344 106.316406 106.933594 106.320312 C 106.921875 105.761719 106.921875 104.394531 107.210938 103.671875 C 107.578125 102.75 108.550781 103.3125 108.550781 103.3125 C 108.550781 103.3125 108.113281 103.101562 107.597656 103.488281 C 107.164062 103.808594 107.121094 105.722656 107.121094 106.359375 C 107.160156 106.367188 107.203125 106.378906 107.238281 106.394531 C 107.3125 105.953125 107.539062 104.761719 107.984375 104.050781 C 108.539062 103.160156 109.359375 103.933594 109.359375 103.933594 C 109.359375 103.933594 108.632812 103.550781 108.074219 104.472656 Z M 108.074219 104.472656 "/><path style=" stroke:none;fill-rule:nonzero;fill:#ffffff;fill-opacity:1;" d="M 90.488281 106.351562 C 89.96875 105.972656 89.535156 106.175781 89.535156 106.175781 C 89.535156 106.175781 90.507812 105.617188 90.875 106.539062 C 91.167969 107.273438 91.160156 108.667969 91.152344 109.207031 C 91.183594 109.199219 91.214844 109.191406 91.246094 109.1875 C 91.242188 108.3125 91.230469 105.371094 91.332031 105.304688 C 91.433594 105.234375 91.472656 108.261719 91.480469 109.171875 C 91.511719 109.171875 91.542969 109.179688 91.574219 109.183594 C 91.5625 108.625 91.5625 107.257812 91.851562 106.535156 C 92.222656 105.613281 93.195312 106.175781 93.195312 106.175781 C 93.195312 106.175781 92.757812 105.964844 92.242188 106.351562 C 91.808594 106.671875 91.761719 108.585938 91.761719 109.222656 C 91.804688 109.234375 91.84375 109.242188 91.882812 109.257812 C 91.957031 108.816406 92.183594 107.628906 92.628906 106.914062 C 93.179688 106.027344 94.003906 106.796875 94.003906 106.796875 C 94.003906 106.796875 93.28125 106.414062 92.726562 107.332031 C 92.269531 108.097656 92.167969 109.027344 92.148438 109.328125 C 92.304688 109.359375 92.460938 109.363281 92.617188 109.335938 C 92.453125 109.523438 92.242188 109.617188 91.992188 109.605469 C 91.933594 109.609375 91.875 109.605469 91.8125 109.597656 L 91.664062 109.578125 C 91.574219 109.566406 91.484375 109.5625 91.390625 109.5625 C 91.300781 109.570312 91.207031 109.585938 91.117188 109.605469 C 91.0625 109.617188 91.023438 109.625 90.953125 109.632812 C 90.882812 109.644531 90.808594 109.640625 90.738281 109.621094 C 90.613281 109.585938 90.507812 109.519531 90.421875 109.417969 C 90.386719 109.378906 90.351562 109.339844 90.316406 109.308594 C 90.28125 109.269531 90.238281 109.257812 90.1875 109.269531 C 90.199219 109.257812 90.207031 109.246094 90.21875 109.238281 C 90.230469 109.226562 90.246094 109.21875 90.261719 109.214844 C 90.292969 109.207031 90.324219 109.203125 90.355469 109.207031 C 90.414062 109.21875 90.472656 109.238281 90.527344 109.257812 L 90.582031 109.277344 C 90.550781 108.933594 90.4375 108.058594 90.003906 107.332031 C 89.449219 106.410156 88.730469 106.796875 88.730469 106.796875 C 88.730469 106.796875 89.550781 106.027344 90.105469 106.914062 C 90.566406 107.65625 90.792969 108.902344 90.855469 109.296875 L 90.882812 109.289062 L 90.96875 109.261719 C 90.964844 108.675781 90.929688 106.683594 90.488281 106.351562 Z M 90.488281 106.351562 "/><g clip-rule="nonzero" clip-path="url(#02e747092e)"><path style=" stroke:none;fill-rule:nonzero;fill:#ffffff;fill-opacity:1;" d="M 84.011719 110.855469 C 84.472656 111.59375 84.699219 112.84375 84.761719 113.238281 L 84.789062 113.230469 L 84.875 113.203125 C 84.875 112.613281 84.839844 110.617188 84.398438 110.289062 C 83.878906 109.90625 83.445312 110.113281 83.445312 110.113281 C 83.445312 110.113281 84.417969 109.550781 84.789062 110.472656 C 85.082031 111.207031 85.074219 112.605469 85.0625 113.144531 C 85.09375 113.132812 85.128906 113.128906 85.164062 113.121094 C 85.15625 112.25 85.148438 109.3125 85.246094 109.238281 C 85.347656 109.167969 85.386719 112.195312 85.398438 113.109375 C 85.429688 113.109375 85.460938 113.113281 85.492188 113.117188 C 85.480469 112.5625 85.480469 111.195312 85.769531 110.472656 C 86.136719 109.550781 87.109375 110.113281 87.109375 110.113281 C 87.109375 110.113281 86.675781 109.902344 86.15625 110.289062 C 85.722656 110.609375 85.679688 112.523438 85.679688 113.15625 C 85.71875 113.167969 85.761719 113.179688 85.800781 113.191406 C 85.871094 112.75 86.097656 111.5625 86.542969 110.851562 C 87.097656 109.960938 87.917969 110.734375 87.917969 110.734375 C 87.917969 110.734375 87.199219 110.347656 86.644531 111.269531 C 86.1875 112.03125 86.085938 112.960938 86.0625 113.261719 C 86.21875 113.296875 86.378906 113.300781 86.535156 113.273438 C 86.394531 113.457031 86.144531 113.539062 85.910156 113.542969 C 85.847656 113.542969 85.789062 113.539062 85.730469 113.53125 L 85.578125 113.515625 C 85.488281 113.503906 85.398438 113.496094 85.308594 113.5 C 85.214844 113.507812 85.125 113.523438 85.035156 113.542969 C 84.980469 113.550781 84.941406 113.5625 84.871094 113.570312 C 84.796875 113.582031 84.726562 113.578125 84.652344 113.558594 C 84.527344 113.523438 84.417969 113.457031 84.332031 113.359375 C 84.292969 113.320312 84.261719 113.28125 84.226562 113.25 C 84.191406 113.210938 84.148438 113.195312 84.097656 113.210938 C 84.105469 113.199219 84.117188 113.1875 84.125 113.175781 C 84.140625 113.167969 84.15625 113.160156 84.167969 113.152344 C 84.199219 113.144531 84.234375 113.144531 84.265625 113.148438 C 84.324219 113.160156 84.378906 113.175781 84.433594 113.199219 L 84.484375 113.21875 C 84.457031 112.871094 84.34375 111.996094 83.914062 111.273438 C 83.359375 110.351562 82.640625 110.738281 82.640625 110.738281 C 82.640625 110.738281 83.457031 109.964844 84.011719 110.855469 Z M 84.011719 110.855469 "/></g><path style=" stroke:none;fill-rule:nonzero;fill:#ffffff;fill-opacity:1;" d="M 95.105469 115.023438 C 95.320312 114.488281 95.886719 114.816406 95.886719 114.816406 C 95.886719 114.816406 95.632812 114.695312 95.332031 114.917969 C 95.078125 115.109375 95.054688 116.214844 95.050781 116.582031 C 95.074219 116.589844 95.097656 116.597656 95.121094 116.605469 C 95.164062 116.347656 95.296875 115.660156 95.554688 115.242188 C 95.875 114.726562 96.351562 115.175781 96.351562 115.175781 C 96.351562 115.175781 95.933594 114.953125 95.613281 115.488281 C 95.414062 115.847656 95.304688 116.234375 95.273438 116.644531 C 95.367188 116.664062 95.457031 116.664062 95.550781 116.652344 C 95.453125 116.761719 95.332031 116.8125 95.183594 116.808594 C 95.152344 116.808594 95.117188 116.804688 95.082031 116.800781 L 94.996094 116.792969 C 94.941406 116.785156 94.890625 116.78125 94.835938 116.78125 C 94.785156 116.785156 94.730469 116.796875 94.679688 116.808594 C 94.644531 116.8125 94.621094 116.820312 94.582031 116.824219 C 94.539062 116.828125 94.5 116.828125 94.457031 116.816406 C 94.382812 116.792969 94.324219 116.753906 94.273438 116.699219 C 94.253906 116.675781 94.234375 116.652344 94.214844 116.632812 C 94.191406 116.613281 94.167969 116.605469 94.136719 116.613281 C 94.164062 116.578125 94.195312 116.566406 94.234375 116.574219 C 94.265625 116.582031 94.296875 116.59375 94.328125 116.605469 C 94.339844 116.609375 94.347656 116.613281 94.359375 116.617188 C 94.328125 116.214844 94.21875 115.839844 94.023438 115.488281 C 93.703125 114.953125 93.285156 115.175781 93.285156 115.175781 C 93.285156 115.175781 93.761719 114.726562 94.082031 115.242188 C 94.351562 115.675781 94.480469 116.402344 94.519531 116.628906 L 94.535156 116.625 L 94.585938 116.609375 C 94.585938 116.265625 94.5625 115.109375 94.308594 114.917969 C 94.003906 114.695312 93.75 114.816406 93.75 114.816406 C 93.75 114.816406 94.316406 114.488281 94.53125 115.023438 C 94.699219 115.453125 94.699219 116.265625 94.691406 116.574219 C 94.707031 116.570312 94.726562 116.570312 94.75 116.566406 C 94.75 116.058594 94.738281 114.351562 94.796875 114.308594 C 94.855469 114.265625 94.878906 116.03125 94.882812 116.558594 C 94.902344 116.558594 94.921875 116.558594 94.9375 116.5625 C 94.9375 116.238281 94.9375 115.445312 95.105469 115.023438 Z M 95.105469 115.023438 "/><path style=" stroke:none;fill-rule:nonzero;fill:#ffffff;fill-opacity:1;" d="M 119.125 100.929688 L 119.449219 101.035156 C 118.429688 103.164062 116.84375 106.3125 116.539062 106.476562 C 116.152344 106.683594 115.152344 106.578125 114.871094 106.484375 C 114.914062 106.09375 116.480469 103.148438 117.480469 101.335938 C 117.492188 101.3125 117.492188 101.289062 117.480469 101.269531 L 116.980469 100.144531 C 117.210938 100.21875 117.433594 100.308594 117.648438 100.421875 C 117.660156 100.425781 117.671875 100.429688 117.6875 100.429688 C 117.695312 100.433594 117.703125 100.433594 117.710938 100.429688 C 117.730469 100.421875 117.746094 100.410156 117.753906 100.390625 L 118.214844 99.246094 L 119.347656 99.667969 L 119.078125 100.847656 C 119.070312 100.886719 119.085938 100.914062 119.125 100.929688 Z M 116.777344 105.347656 L 116.113281 106.265625 L 116.5 105.347656 L 115.875 106.292969 L 116.277344 105.347656 L 115.675781 106.304688 L 116.085938 105.316406 L 115.523438 106.277344 L 115.882812 105.316406 L 115.367188 106.277344 L 115.710938 105.316406 L 115.226562 106.277344 L 115.5625 105.316406 C 115.5625 105.316406 115.035156 106.257812 115.066406 106.378906 C 115.066406 106.378906 115.96875 106.535156 116.359375 106.378906 L 117.015625 105.347656 L 116.261719 106.304688 Z M 116.777344 105.347656 "/><path style=" stroke:none;fill-rule:nonzero;fill:#ffffff;fill-opacity:1;" d="M 115.691406 86.394531 C 115.078125 86.632812 112.914062 85.953125 110.667969 84.699219 C 109.085938 83.816406 107.464844 82.648438 106.308594 81.3125 C 106.304688 81.3125 106.304688 81.308594 106.300781 81.304688 C 106.300781 81.304688 106.300781 81.304688 106.300781 81.300781 C 106.148438 81.121094 106.003906 80.941406 105.871094 80.761719 C 104.539062 78.96875 104.070312 77.410156 104.601562 76.578125 C 104.871094 76.167969 105.371094 75.992188 105.949219 76.113281 C 109 76.152344 113.578125 76.230469 113.960938 76.289062 C 114.132812 76.644531 115.136719 81.089844 115.78125 84.042969 C 115.78125 84.050781 115.785156 84.054688 115.789062 84.0625 C 115.792969 84.074219 116.414062 85.222656 116.15625 85.933594 C 116.074219 86.160156 115.917969 86.316406 115.691406 86.394531 Z M 113.699219 76.742188 L 113.207031 84.253906 L 113.796875 79.09375 L 113.683594 84.535156 L 113.96875 80.449219 L 114.054688 84.695312 L 114.222656 81.679688 L 114.464844 84.761719 L 114.496094 82.808594 L 114.925781 84.621094 Z M 115.570312 84.507812 C 115.570312 84.507812 115.761719 86.554688 110.898438 83.691406 C 106.035156 80.828125 105.175781 77.703125 105.175781 77.703125 C 105.671875 81.679688 112.476562 85.175781 114.304688 85.585938 C 116.132812 85.992188 115.570312 84.507812 115.570312 84.507812 Z M 115.570312 84.507812 "/><path style=" stroke:none;fill-rule:nonzero;fill:#ffffff;fill-opacity:1;" d="M 114.335938 99.640625 C 112.429688 99.722656 108.257812 98.515625 107.644531 98.335938 C 107.835938 98.0625 107.964844 97.765625 108.039062 97.441406 C 108.628906 97.59375 111.960938 98.453125 113.445312 98.527344 C 113.78125 98.542969 114.136719 98.550781 114.476562 98.558594 C 115.761719 98.585938 117.089844 98.617188 118.082031 99.175781 L 117.648438 100.25 C 117.34375 100.097656 116.160156 99.566406 114.335938 99.640625 Z M 114.335938 99.640625 "/><path style=" stroke:none;fill-rule:nonzero;fill:#ffffff;fill-opacity:1;" d="M 95.785156 93.285156 C 95.78125 93.773438 95.753906 94.261719 95.699219 94.75 L 95.699219 94.753906 C 95.675781 94.855469 95.117188 95.101562 94.851562 95.101562 C 94.824219 95.101562 94.800781 95.09375 94.785156 95.074219 C 94.726562 95.007812 94.734375 94.84375 94.75 94.757812 C 94.753906 94.71875 94.738281 94.691406 94.699219 94.675781 C 94.664062 94.660156 94.632812 94.671875 94.613281 94.707031 C 94.480469 94.917969 94.300781 95.164062 94.25 95.191406 C 94.203125 95.195312 93.964844 95.125 93.925781 94.988281 C 93.902344 94.90625 94.105469 94.558594 94.308594 94.285156 C 94.339844 94.246094 94.332031 94.210938 94.292969 94.179688 C 94.253906 94.152344 94.21875 94.15625 94.191406 94.195312 C 94.046875 94.386719 93.921875 94.589844 93.824219 94.804688 C 93.648438 94.78125 93.476562 94.742188 93.308594 94.679688 C 93.316406 94.601562 93.453125 94.34375 93.621094 94.097656 C 93.652344 94.054688 93.648438 94.023438 93.601562 93.996094 C 93.5625 93.96875 93.527344 93.972656 93.5 94.011719 C 93.382812 94.175781 93.28125 94.351562 93.203125 94.535156 C 92.960938 94.574219 92.699219 94.609375 92.59375 94.613281 C 92.59375 94.558594 92.597656 94.457031 92.605469 94.371094 C 92.613281 94.269531 92.621094 94.15625 92.621094 94.054688 C 92.625 93.972656 92.621094 93.890625 92.605469 93.8125 C 92.574219 93.664062 92.398438 93.476562 92.214844 93.277344 C 92.058594 93.113281 91.898438 92.941406 91.84375 92.816406 C 91.8125 92.746094 91.84375 92.574219 91.878906 92.359375 C 92.070312 91.40625 92.023438 90.46875 91.734375 89.542969 C 91.613281 89.144531 91.480469 88.75 91.351562 88.367188 C 90.875 86.960938 90.417969 85.625 90.605469 83.921875 C 91.125 84.582031 91.9375 85.1875 93.21875 85.449219 C 93.238281 86.019531 93.410156 90.273438 93.871094 91.015625 C 94.144531 91.453125 94.691406 91.929688 95.128906 92.3125 C 95.433594 92.578125 95.742188 92.847656 95.765625 92.949219 C 95.78125 93.050781 95.789062 93.152344 95.785156 93.253906 Z M 95.785156 93.285156 "/><path style=" stroke:none;fill-rule:nonzero;fill:#ffffff;fill-opacity:1;" d="M 107.675781 98 C 107.675781 97.863281 107.660156 97.738281 107.597656 97.679688 C 107.4375 97.515625 107.171875 97.683594 107.019531 97.804688 C 107.011719 97.726562 106.976562 97.664062 106.914062 97.617188 C 106.851562 97.570312 106.78125 97.554688 106.703125 97.570312 C 106.761719 97.414062 106.773438 97.253906 106.746094 97.09375 C 106.726562 96.976562 106.664062 96.894531 106.5625 96.839844 C 106.46875 96.792969 106.363281 96.824219 106.25 96.898438 L 104.53125 96.28125 C 104.605469 96.09375 104.785156 95.539062 104.703125 95.109375 C 104.65625 94.871094 104.164062 93.671875 103.652344 92.457031 C 103.144531 91.242188 102.609375 90.011719 102.480469 89.707031 C 103.445312 89.238281 104.433594 88.828125 105.441406 88.472656 C 105.476562 89.730469 105.59375 90.980469 105.792969 92.222656 C 106.140625 94.476562 106.1875 94.703125 106.578125 95.238281 C 106.734375 95.433594 106.902344 95.617188 107.085938 95.785156 C 107.484375 96.175781 107.945312 96.617188 107.933594 97.054688 C 107.933594 97.132812 107.925781 97.210938 107.917969 97.289062 C 107.90625 97.296875 107.898438 97.308594 107.894531 97.320312 C 107.890625 97.339844 107.894531 97.355469 107.898438 97.371094 C 107.855469 97.589844 107.78125 97.800781 107.675781 98 Z M 107.675781 98 "/><path style=" stroke:none;fill-rule:nonzero;fill:#ffffff;fill-opacity:1;" d="M 108.6875 85.398438 C 108.324219 85.332031 108.003906 84.996094 107.691406 84.667969 C 107.476562 84.445312 107.273438 84.230469 107.0625 84.113281 C 106.632812 83.867188 105.976562 83.945312 105.738281 83.988281 C 105.742188 83.644531 105.769531 83.308594 105.824219 82.96875 C 105.894531 82.453125 106.039062 81.957031 106.261719 81.480469 C 107.375 82.734375 108.945312 83.875 110.5 84.757812 C 110.1875 84.941406 109.191406 85.492188 108.6875 85.398438 Z M 108.6875 85.398438 "/><path style=" stroke:none;fill-rule:nonzero;fill:#ffffff;fill-opacity:1;" d="M 92.457031 93.839844 C 92.46875 93.886719 92.472656 93.9375 92.46875 93.984375 C 92.039062 94 91.449219 93.964844 91.367188 93.824219 C 91.261719 93.652344 91.273438 93.15625 91.289062 92.914062 L 91.730469 92.914062 C 91.839844 93.082031 91.964844 93.238281 92.105469 93.378906 C 92.261719 93.546875 92.4375 93.734375 92.457031 93.839844 Z M 92.457031 93.839844 "/><path style=" stroke:none;fill-rule:nonzero;fill:#ffffff;fill-opacity:1;" d="M 106.152344 81.359375 C 105.558594 82.515625 105.585938 84.015625 105.589844 84.078125 C 105.589844 84.101562 105.597656 84.121094 105.617188 84.136719 C 105.636719 84.148438 105.65625 84.15625 105.679688 84.148438 C 105.6875 84.148438 106.515625 83.972656 106.988281 84.246094 C 107.035156 84.273438 107.082031 84.300781 107.125 84.335938 C 107.054688 84.722656 106.890625 85.070312 106.636719 85.371094 L 105.9375 84.433594 C 105.9375 84.433594 106.476562 85.265625 106.585938 85.660156 C 106.585938 85.660156 107.195312 84.992188 107.269531 84.460938 C 107.371094 84.554688 107.476562 84.664062 107.585938 84.773438 C 107.914062 85.117188 108.253906 85.472656 108.660156 85.546875 C 108.707031 85.558594 108.757812 85.5625 108.808594 85.5625 C 108.941406 85.558594 109.070312 85.539062 109.199219 85.503906 C 108.96875 85.980469 108.105469 87.507812 106.296875 88.042969 C 106.027344 88.125 105.753906 88.210938 105.492188 88.304688 L 105.484375 88.304688 C 104.417969 88.675781 103.371094 89.105469 102.351562 89.59375 C 102.351562 89.59375 102.347656 89.59375 102.34375 89.59375 C 102.160156 89.683594 102.058594 89.734375 102.058594 89.738281 C 102.019531 89.753906 102.007812 89.78125 102.015625 89.820312 C 102.027344 89.859375 102.738281 92.75 103.261719 95.816406 L 95.9375 93.199219 C 95.9375 93.101562 95.933594 93.003906 95.914062 92.90625 C 95.882812 92.765625 95.660156 92.566406 95.230469 92.191406 C 94.804688 91.816406 94.261719 91.347656 94 90.925781 C 93.601562 90.289062 93.425781 86.675781 93.378906 85.648438 C 93.378906 85.648438 96.824219 84.707031 98.40625 84.1875 C 99.988281 83.671875 100.21875 83.222656 100.21875 83.222656 C 100.75 81.027344 99.234375 79.378906 99.234375 79.378906 C 99.234375 79.378906 100.707031 82.355469 99.671875 83.226562 C 98.730469 84.023438 94.144531 85.203125 93.363281 85.398438 C 93.363281 85.386719 93.363281 85.378906 93.363281 85.378906 C 93.363281 85.339844 93.34375 85.316406 93.304688 85.308594 C 90.117188 84.6875 89.855469 81.890625 89.832031 81.578125 C 89.949219 81.460938 90.8125 80.726562 95.6875 78.972656 C 98.5625 77.9375 100.847656 77.699219 102.34375 77.699219 C 102.996094 77.6875 103.640625 77.742188 104.277344 77.863281 C 104.390625 78.5625 104.777344 79.53125 105.738281 80.839844 C 105.867188 81.015625 106.003906 81.1875 106.152344 81.359375 Z M 95.722656 89.589844 C 94.945312 89.558594 94.332031 86.445312 94.332031 86.445312 C 94.332031 86.445312 94.492188 90.074219 95.851562 89.914062 C 97.210938 89.75 102.46875 87.234375 102.46875 87.234375 C 102.46875 87.234375 96.496094 89.621094 95.722656 89.589844 Z M 97.347656 90.816406 C 102.289062 89.976562 105.695312 86.972656 105.695312 86.972656 C 102.957031 88.636719 97.347656 90.816406 97.347656 90.816406 Z M 105.484375 81.046875 C 105.484375 81.046875 104.164062 83.363281 104.777344 85.410156 L 105.484375 84.46875 L 104.894531 84.863281 C 104.894531 84.863281 104.613281 82.644531 105.484375 81.046875 Z M 105.484375 81.046875 "/><path style=" stroke:none;fill-rule:nonzero;fill:#ffffff;fill-opacity:1;" d="M 94.4375 106.730469 C 94.289062 105.671875 93.597656 100.835938 92.964844 98.320312 C 93.972656 98.816406 95.023438 99.179688 96.121094 99.40625 C 96.394531 99.46875 96.675781 99.496094 96.957031 99.492188 C 97.578125 99.480469 98.183594 99.382812 98.777344 99.199219 C 99.484375 98.976562 100.167969 98.695312 100.828125 98.351562 C 101.527344 97.992188 102.199219 97.582031 102.839844 97.125 L 103.488281 97.332031 C 103.574219 97.964844 103.652344 98.582031 103.703125 99.167969 C 104.0625 103.171875 103.332031 106.046875 102.644531 107.761719 C 102.355469 107.761719 100.875 107.757812 99.484375 107.308594 C 99.484375 107.253906 99.484375 107.210938 99.484375 107.191406 L 99.484375 107.1875 C 99.496094 107.082031 99.507812 106.929688 99.527344 106.742188 C 99.632812 105.492188 99.664062 104.242188 99.621094 102.992188 C 99.519531 100.855469 99.054688 99.78125 99.035156 99.738281 C 99.015625 99.691406 98.984375 99.679688 98.9375 99.699219 C 98.894531 99.71875 98.882812 99.75 98.902344 99.792969 C 98.902344 99.804688 99.378906 100.894531 99.472656 102.996094 C 99.519531 104.214844 99.492188 105.433594 99.390625 106.648438 C 98.949219 106.597656 96.839844 106.363281 95.515625 106.441406 C 95.5 106.429688 95.480469 106.421875 95.460938 106.421875 C 95.4375 106.425781 95.421875 106.433594 95.40625 106.449219 C 94.988281 106.484375 94.660156 106.550781 94.507812 106.675781 C 94.484375 106.691406 94.460938 106.710938 94.4375 106.730469 Z M 94.4375 106.730469 "/><path style=" stroke:none;fill-rule:nonzero;fill:#ffffff;fill-opacity:1;" d="M 94.597656 106.789062 C 94.722656 106.683594 95.011719 106.625 95.390625 106.597656 C 95.398438 106.726562 95.417969 106.984375 95.449219 107.320312 C 95.039062 107.269531 94.523438 107.144531 94.472656 106.984375 C 94.453125 106.917969 94.527344 106.84375 94.597656 106.789062 Z M 94.597656 106.789062 "/><path style=" stroke:none;fill-rule:nonzero;fill:#ffffff;fill-opacity:1;" d="M 102.664062 97.066406 C 102.082031 97.476562 98.613281 99.804688 96.152344 99.261719 C 94.640625 98.925781 93.570312 98.46875 92.917969 98.128906 C 92.914062 98.109375 92.910156 98.09375 92.90625 98.078125 C 92.894531 98.03125 92.863281 98.011719 92.816406 98.027344 C 92.800781 98.03125 92.785156 98.039062 92.777344 98.050781 C 92.5625 97.9375 92.355469 97.8125 92.160156 97.671875 C 92.03125 97.449219 90.332031 94.488281 90.234375 93.203125 C 90.148438 92.035156 91.113281 89.484375 91.359375 88.859375 C 91.4375 89.101562 91.519531 89.335938 91.589844 89.582031 C 91.871094 90.488281 91.917969 91.402344 91.730469 92.332031 C 91.699219 92.476562 91.683594 92.621094 91.683594 92.765625 L 91.21875 92.765625 C 91.175781 92.765625 91.152344 92.789062 91.148438 92.832031 C 91.140625 92.914062 91.082031 93.636719 91.242188 93.902344 C 91.363281 94.101562 91.910156 94.136719 92.261719 94.136719 C 92.34375 94.136719 92.414062 94.136719 92.46875 94.136719 C 92.46875 94.214844 92.460938 94.292969 92.457031 94.367188 C 92.4375 94.636719 92.433594 94.71875 92.5 94.75 C 92.523438 94.757812 92.546875 94.761719 92.574219 94.757812 C 92.769531 94.75 92.96875 94.726562 93.164062 94.691406 C 93.160156 94.734375 93.175781 94.765625 93.207031 94.789062 C 93.296875 94.859375 93.625 94.917969 93.78125 94.945312 C 93.777344 94.972656 93.777344 95 93.78125 95.027344 C 93.839844 95.234375 94.113281 95.332031 94.25 95.332031 C 94.257812 95.335938 94.269531 95.335938 94.277344 95.332031 C 94.304688 95.332031 94.371094 95.320312 94.597656 94.996094 C 94.605469 95.058594 94.628906 95.117188 94.664062 95.167969 C 94.710938 95.222656 94.773438 95.25 94.847656 95.246094 C 95.019531 95.234375 95.183594 95.195312 95.34375 95.128906 C 95.535156 95.058594 95.726562 94.960938 95.804688 94.859375 Z M 102.664062 97.066406 "/><path style=" stroke:none;fill-rule:nonzero;fill:#ffffff;fill-opacity:1;" d="M 107.460938 98.5 C 107.363281 98.898438 107.238281 99.140625 107.164062 99.167969 C 106.941406 99.242188 106.746094 99.03125 106.742188 99.027344 C 106.71875 99.003906 106.691406 99 106.660156 99.011719 C 106.515625 99.066406 106.242188 99.136719 106.136719 99.082031 C 106.015625 99.015625 105.933594 98.828125 105.910156 98.761719 C 105.898438 98.722656 105.871094 98.707031 105.828125 98.710938 C 105.621094 98.746094 105.363281 98.765625 105.3125 98.738281 C 105.25 98.683594 105.214844 98.621094 105.199219 98.542969 C 105.191406 98.5 105.164062 98.480469 105.121094 98.484375 C 104.921875 98.492188 104.71875 98.46875 104.683594 98.4375 C 104.667969 98.40625 104.652344 98.378906 104.628906 98.351562 C 104.546875 98.25 104.40625 98.058594 104.375 97.621094 L 104.660156 97.714844 C 104.625 97.765625 104.589844 97.8125 104.558594 97.867188 C 104.527344 97.910156 104.535156 97.941406 104.582031 97.96875 C 104.625 97.996094 104.660156 97.984375 104.683594 97.941406 C 104.726562 97.878906 104.769531 97.816406 104.820312 97.757812 C 104.847656 97.753906 104.867188 97.734375 104.875 97.707031 C 104.875 97.703125 104.875 97.695312 104.875 97.691406 C 104.988281 97.5625 105.125 97.472656 105.289062 97.421875 C 105.398438 97.398438 105.429688 97.441406 105.441406 97.453125 C 105.515625 97.554688 105.472656 97.835938 105.351562 98.035156 L 105.183594 98.320312 C 105.15625 98.363281 105.167969 98.394531 105.210938 98.417969 C 105.222656 98.425781 105.234375 98.429688 105.25 98.429688 C 105.277344 98.429688 105.296875 98.417969 105.3125 98.394531 L 105.480469 98.109375 C 105.523438 98.035156 105.554688 97.960938 105.578125 97.882812 C 105.769531 97.578125 105.996094 97.308594 106.265625 97.066406 C 106.269531 97.066406 106.277344 97.066406 106.28125 97.066406 C 106.316406 97.066406 106.339844 97.050781 106.351562 97.015625 C 106.351562 97.011719 106.351562 97.007812 106.351562 97.003906 C 106.410156 96.972656 106.457031 96.957031 106.488281 96.976562 C 106.550781 97.007812 106.585938 97.058594 106.597656 97.128906 C 106.632812 97.289062 106.574219 97.542969 106.460938 97.773438 C 106.449219 97.789062 106.445312 97.800781 106.441406 97.808594 C 106.40625 97.878906 106.367188 97.945312 106.320312 98.007812 L 106.042969 98.359375 C 106.011719 98.398438 106.019531 98.433594 106.054688 98.464844 C 106.070312 98.472656 106.085938 98.476562 106.101562 98.480469 C 106.125 98.480469 106.144531 98.46875 106.15625 98.453125 L 106.4375 98.097656 C 106.488281 98.03125 106.535156 97.957031 106.578125 97.878906 C 106.605469 97.808594 106.65625 97.757812 106.722656 97.722656 C 106.765625 97.714844 106.800781 97.722656 106.832031 97.75 C 106.871094 97.773438 106.886719 97.855469 106.882812 97.964844 C 106.863281 98.210938 106.808594 98.445312 106.726562 98.679688 C 106.707031 98.726562 106.722656 98.757812 106.773438 98.773438 C 106.78125 98.773438 106.789062 98.773438 106.796875 98.773438 C 106.832031 98.773438 106.855469 98.757812 106.867188 98.722656 C 106.949219 98.488281 107.003906 98.246094 107.027344 97.996094 C 107.148438 97.882812 107.410156 97.695312 107.492188 97.785156 C 107.53125 97.824219 107.542969 98.03125 107.492188 98.339844 C 107.484375 98.347656 107.476562 98.355469 107.472656 98.367188 C 107.46875 98.382812 107.46875 98.398438 107.472656 98.414062 C 107.472656 98.441406 107.46875 98.46875 107.460938 98.5 Z M 107.460938 98.5 "/><path style=" stroke:none;fill-rule:nonzero;fill:#ffffff;fill-opacity:1;" d="M 95.933594 93.359375 L 103.28125 95.992188 L 103.441406 96.050781 L 104.394531 96.390625 L 104.402344 96.390625 L 106.101562 97.003906 C 105.921875 97.167969 105.765625 97.351562 105.625 97.554688 C 105.621094 97.484375 105.601562 97.421875 105.5625 97.363281 C 105.484375 97.253906 105.386719 97.222656 105.261719 97.269531 C 105.0625 97.324219 104.898438 97.429688 104.761719 97.585938 L 104.332031 97.445312 C 104.324219 97.441406 104.320312 97.441406 104.3125 97.441406 L 103.625 97.21875 L 103.464844 97.167969 L 95.855469 94.714844 C 95.871094 94.601562 95.890625 94.378906 95.902344 94.125 C 95.914062 93.871094 95.929688 93.597656 95.933594 93.359375 Z M 95.933594 93.359375 "/><g clip-rule="nonzero" clip-path="url(#c5139cfd6a)"><path style=" stroke:none;fill-rule:nonzero;fill:#ffffff;fill-opacity:1;" d="M 336.835938 95.191406 L 337.140625 95.199219 C 337.5625 95.207031 337.964844 95.320312 338.328125 95.53125 C 337.859375 94.570312 338.007812 93.347656 338.765625 92.550781 L 338.976562 92.332031 C 339.140625 92.140625 339.4375 92.132812 339.621094 92.296875 C 339.632812 92.308594 339.640625 92.316406 339.65625 92.332031 L 339.867188 92.550781 C 340.617188 93.355469 340.765625 94.5625 340.304688 95.53125 C 340.664062 95.328125 341.074219 95.214844 341.472656 95.199219 L 341.78125 95.191406 C 342.035156 95.179688 342.25 95.382812 342.261719 95.625 C 342.261719 95.636719 342.261719 95.644531 342.261719 95.671875 L 342.226562 95.976562 C 342.191406 97.320312 341.109375 98.4375 339.726562 98.535156 L 339.726562 99.3125 L 338.800781 99.3125 L 338.800781 98.535156 C 337.492188 98.4375 336.390625 97.320312 336.355469 95.976562 L 336.355469 95.671875 C 336.355469 95.546875 336.410156 95.417969 336.496094 95.320312 C 336.574219 95.234375 336.707031 95.191406 336.835938 95.191406 Z M 336.835938 95.191406 "/></g><g clip-rule="nonzero" clip-path="url(#7682415908)"><path style=" stroke:none;fill-rule:nonzero;fill:#ffffff;fill-opacity:1;" d="M 336.828125 84.367188 L 337.132812 84.375 C 337.550781 84.382812 337.953125 84.5 338.320312 84.707031 C 337.847656 83.746094 337.996094 82.523438 338.757812 81.730469 L 338.96875 81.511719 C 339.132812 81.320312 339.429688 81.308594 339.613281 81.476562 C 339.621094 81.484375 339.632812 81.492188 339.648438 81.511719 L 339.859375 81.730469 C 340.609375 82.53125 340.757812 83.738281 340.296875 84.707031 C 340.652344 84.507812 341.0625 84.394531 341.464844 84.375 L 341.769531 84.367188 C 342.023438 84.359375 342.242188 84.558594 342.25 84.804688 C 342.25 84.8125 342.25 84.820312 342.25 84.847656 L 342.21875 85.152344 C 342.199219 86.488281 341.109375 87.617188 339.734375 87.703125 L 339.734375 88.5 L 338.808594 88.5 L 338.808594 87.703125 C 337.5 87.609375 336.398438 86.488281 336.363281 85.144531 L 336.363281 84.839844 C 336.363281 84.585938 336.566406 84.375 336.828125 84.367188 C 336.820312 84.367188 336.828125 84.367188 336.828125 84.367188 Z M 336.828125 84.367188 "/></g><g clip-rule="nonzero" clip-path="url(#f123c4adc0)"><path style=" stroke:none;fill-rule:nonzero;fill:#ffffff;fill-opacity:1;" d="M 336.835938 106.019531 L 337.140625 106.03125 C 337.5625 106.039062 337.964844 106.152344 338.328125 106.363281 C 337.859375 105.402344 338.007812 104.175781 338.765625 103.382812 L 338.976562 103.164062 C 339.140625 102.972656 339.4375 102.964844 339.621094 103.128906 C 339.632812 103.136719 339.640625 103.148438 339.65625 103.164062 L 339.867188 103.382812 C 340.617188 104.1875 340.765625 105.390625 340.304688 106.363281 C 340.664062 106.160156 341.074219 106.046875 341.472656 106.03125 L 341.78125 106.019531 C 342.035156 106.011719 342.25 106.214844 342.261719 106.457031 C 342.261719 106.464844 342.261719 106.476562 342.261719 106.5 L 342.226562 106.808594 C 342.191406 108.152344 341.109375 109.269531 339.726562 109.367188 L 339.726562 110.117188 L 338.800781 110.117188 L 338.800781 109.367188 C 337.492188 109.269531 336.390625 108.152344 336.355469 106.808594 L 336.355469 106.5 C 336.355469 106.378906 336.410156 106.246094 336.496094 106.152344 C 336.574219 106.066406 336.707031 106.019531 336.835938 106.019531 Z M 336.835938 106.019531 "/></g><path style=" stroke:none;fill-rule:nonzero;fill:#ffffff;fill-opacity:1;" d="M 337.507812 89.03125 L 341.097656 89.03125 L 340.664062 90.867188 L 337.929688 90.867188 Z M 337.507812 89.03125 "/><path style=" stroke:none;fill-rule:nonzero;fill:#ffffff;fill-opacity:1;" d="M 346.324219 111.488281 L 346.324219 112.152344 L 341.703125 112.152344 L 341.839844 111.488281 Z M 346.324219 111.488281 "/><path style=" stroke:none;fill-rule:nonzero;fill:#ffffff;fill-opacity:1;" d="M 341.738281 90.339844 L 341.867188 89.679688 L 346.324219 89.679688 L 346.324219 90.339844 Z M 341.738281 90.339844 "/><path style=" stroke:none;fill-rule:nonzero;fill:#ffffff;fill-opacity:1;" d="M 337.507812 99.835938 L 341.097656 99.835938 L 340.664062 101.730469 L 337.929688 101.730469 Z M 337.507812 99.835938 "/><path style=" stroke:none;fill-rule:nonzero;fill:#ffffff;fill-opacity:1;" d="M 340.664062 112.535156 L 337.929688 112.535156 L 337.507812 110.640625 L 341.097656 110.640625 Z M 340.664062 112.535156 "/><path style=" stroke:none;fill-rule:nonzero;fill:#ffffff;fill-opacity:1;" d="M 341.710938 101.269531 L 341.851562 100.621094 L 346.324219 100.621094 L 346.324219 101.269531 Z M 341.710938 101.269531 "/><g clip-rule="nonzero" clip-path="url(#69f70eab3f)"><path style=" stroke:none;fill-rule:nonzero;fill:#ffffff;fill-opacity:1;" d="M 348.296875 113.726562 L 347.25 113.726562 L 347.25 84.898438 L 348.296875 84.898438 Z M 348.296875 113.726562 "/></g></g></svg>