<svg xmlns="http://www.w3.org/2000/svg" xmlns:xlink="http://www.w3.org/1999/xlink" width="479" zoomAndPan="magnify" viewBox="0 0 359.25 359.249987" height="479" preserveAspectRatio="xMidYMid meet" version="1.2"><defs><clipPath id="43c881cbbf"><path d="M 0 0 L 358.5 0 L 358.5 358.5 L 0 358.5 Z M 0 0 "/></clipPath></defs><g id="7e1068002e"><g clip-rule="nonzero" clip-path="url(#43c881cbbf)"><path style=" stroke:none;fill-rule:evenodd;fill:#000000;fill-opacity:1;" d="M 92.996094 3.75 C 92.996094 46.519531 137.691406 96.933594 189.199219 112.265625 C 213.054688 119.367188 213.046875 118.328125 189.085938 95.660156 C 167.6875 75.414062 167.6875 75.414062 153.519531 74.386719 C 145.726562 73.820312 137.730469 72.5625 135.746094 71.589844 C 128.027344 67.804688 133.957031 56.644531 142.339844 59.171875 C 149.511719 61.332031 147.113281 57.664062 132.140625 43.554688 C 117.5625 29.824219 115.300781 25.40625 120.675781 21.167969 C 124.320312 18.300781 128.75 20.328125 137.160156 28.71875 C 144.320312 35.859375 146.050781 36.183594 146.933594 30.554688 C 149.277344 15.597656 161.742188 21.785156 160.378906 37.226562 C 159.296875 49.421875 219.9375 113.785156 222.300781 102.949219 C 226.40625 84.140625 189.574219 34.75 158.582031 17.503906 C 132.566406 3.027344 92.996094 -5.269531 92.996094 3.75 M 191.886719 22.234375 C 191.886719 22.875 197.378906 29.09375 204.097656 36.050781 C 211.53125 43.753906 219.6875 55.179688 224.949219 65.265625 C 233.59375 81.828125 233.59375 81.828125 238.183594 72.417969 C 240.714844 67.238281 247.089844 57.980469 252.355469 51.84375 C 264.125 38.125 264.699219 40.121094 246.996094 33.148438 C 227.316406 25.394531 191.886719 18.378906 191.886719 22.234375 M 289.128906 42.679688 C 265.671875 51.613281 246.410156 78.710938 242.226562 108.65625 C 237.882812 139.738281 287.203125 94.789062 295.910156 59.730469 C 300.789062 40.089844 300.152344 38.480469 289.128906 42.679688 M 76.488281 51.710938 C 17.816406 88.964844 -15.019531 174.902344 6.761719 234.210938 C 9.597656 241.933594 9.316406 242.285156 19.703125 218.09375 C 60.605469 122.8125 119.421875 106.164062 162.984375 177.527344 C 179.363281 204.363281 175.902344 202.40625 189.402344 192.46875 C 202.109375 183.121094 210.289062 178.8125 219.183594 176.785156 C 233.089844 173.621094 226.9375 133.273438 212.308594 131.703125 C 164.808594 126.601562 117.46875 96.59375 96.140625 58.070312 C 92.019531 50.625 88.457031 44.535156 88.21875 44.535156 C 87.984375 44.535156 82.703125 47.761719 76.488281 51.710938 M 302.519531 84.140625 C 291.511719 106.570312 272.582031 123.910156 252.578125 129.894531 C 237.074219 134.535156 234.492188 174.1875 249.566406 176.105469 C 273.363281 179.136719 304.023438 201.871094 331.414062 236.792969 C 362.582031 276.527344 369.054688 170.738281 338.929688 113.964844 C 320.601562 79.421875 309.359375 70.214844 302.519531 84.140625 M 97.101562 148.066406 C 62.921875 157.9375 9.050781 247.894531 22.894531 271.980469 C 88.191406 385.574219 273.625 387.742188 333.882812 275.617188 C 340.304688 263.664062 293.917969 209.558594 265.453125 195.796875 C 229.472656 178.40625 176.378906 201.476562 191.988281 227.722656 C 217.757812 271.050781 239.09375 283.109375 263.597656 268.195312 C 276.523438 260.328125 283.316406 272.347656 270.5625 280.507812 C 235.78125 302.757812 208.375 285.5625 169.074219 216.824219 C 139.871094 165.75 129.125 152.796875 112.265625 148.351562 C 103.394531 146.015625 104.152344 146.03125 97.101562 148.066406 M 84.152344 185.378906 C 81.25 187.546875 77.816406 192.355469 76.527344 196.0625 C 69.777344 215.480469 96.175781 229.570312 111.695312 214.835938 C 129.425781 198.007812 103.855469 170.664062 84.152344 185.378906 M 91.679688 198.0625 C 89.832031 202.636719 92.441406 206.863281 97.113281 206.863281 C 102.355469 206.863281 104.636719 201.953125 101.214844 198.039062 C 97.945312 194.296875 93.195312 194.308594 91.679688 198.0625 M 59.550781 251.691406 C 41.296875 267.175781 61.570312 295.441406 83.347656 284.875 C 98.648438 277.445312 99.507812 256.160156 84.796875 248.941406 C 75.414062 244.335938 67.167969 245.234375 59.550781 251.691406 M 68.382812 262.476562 C 65.503906 265.769531 68.78125 273.355469 73.085938 273.355469 C 79.863281 273.355469 83.402344 263.046875 77.375 260.851562 C 72.566406 259.101562 71.101562 259.367188 68.382812 262.476562 M 132.636719 265.527344 C 117.90625 274.054688 113.011719 293.617188 122.355469 306.613281 C 139.847656 330.941406 178.152344 319.308594 178.152344 289.664062 C 178.152344 268.691406 151.546875 254.585938 132.636719 265.527344 M 137.199219 280.121094 C 129.046875 287.859375 130.636719 298.894531 140.613281 303.792969 C 147.777344 307.3125 155.804688 305.777344 160 300.085938 C 171.160156 284.960938 150.839844 267.171875 137.199219 280.121094 "/></g><g style="fill:#000000;fill-opacity:1;"><g transform="translate(178.812661, 170.586486)"><path style="stroke:none" d="M 0.125 0 C 0.113281 0 0.101562 -0.00390625 0.09375 -0.015625 C 0.0820312 -0.0234375 0.078125 -0.0351562 0.078125 -0.046875 C 0.078125 -0.0664062 0.0820312 -0.0820312 0.09375 -0.09375 C 0.101562 -0.101562 0.113281 -0.109375 0.125 -0.109375 C 0.144531 -0.109375 0.160156 -0.101562 0.171875 -0.09375 C 0.179688 -0.0820312 0.1875 -0.0664062 0.1875 -0.046875 C 0.1875 -0.0351562 0.179688 -0.0234375 0.171875 -0.015625 C 0.160156 -0.00390625 0.144531 0 0.125 0 Z M 0.125 0 "/></g></g></g></svg>